<?xml version="1.0" encoding="UTF-8"?>
<svg id="Calque_1" data-name="Calque 1" xmlns="http://www.w3.org/2000/svg" xmlns:xlink="http://www.w3.org/1999/xlink" viewBox="0 0 216.59 217.89">
  <defs>
    <style>
      .cls-1 {
        fill: url(#Dégradé_sans_nom_14);
      }

      .cls-1, .cls-2, .cls-3, .cls-4, .cls-5, .cls-6 {
        stroke: #1e1e1c;
        stroke-miterlimit: 10;
      }

      .cls-7 {
        fill: #3c73b9;
      }

      .cls-7, .cls-8 {
        stroke-width: 0px;
      }

      .cls-2 {
        fill: url(#Dégradé_sans_nom_14-6);
      }

      .cls-3 {
        fill: url(#Dégradé_sans_nom_14-5);
      }

      .cls-4 {
        fill: url(#Dégradé_sans_nom_14-4);
      }

      .cls-5 {
        fill: url(#Dégradé_sans_nom_14-3);
      }

      .cls-6 {
        fill: url(#Dégradé_sans_nom_14-2);
      }

      .cls-8 {
        fill: #444757;
      }
    </style>
    <linearGradient id="Dégradé_sans_nom_14" data-name="Dégradé sans nom 14" x1="13.07" y1="104.41" x2="48.45" y2="104.41" gradientUnits="userSpaceOnUse">
      <stop offset="0" stop-color="#3c73b9"/>
      <stop offset="1" stop-color="#fff"/>
    </linearGradient>
    <linearGradient id="Dégradé_sans_nom_14-2" data-name="Dégradé sans nom 14" x1="48.24" y1="113.35" x2="70.19" y2="113.35" xlink:href="#Dégradé_sans_nom_14"/>
    <linearGradient id="Dégradé_sans_nom_14-3" data-name="Dégradé sans nom 14" x1="71.81" y1="119.96" x2="98.19" y2="119.96" xlink:href="#Dégradé_sans_nom_14"/>
    <linearGradient id="Dégradé_sans_nom_14-4" data-name="Dégradé sans nom 14" x1="101.11" y1="116.57" x2="136.19" y2="116.57" xlink:href="#Dégradé_sans_nom_14"/>
    <linearGradient id="Dégradé_sans_nom_14-5" data-name="Dégradé sans nom 14" x1="140.32" y1="105.89" x2="161.38" y2="105.89" xlink:href="#Dégradé_sans_nom_14"/>
    <linearGradient id="Dégradé_sans_nom_14-6" data-name="Dégradé sans nom 14" x1="162.99" y1="104.86" x2="192.05" y2="104.86" xlink:href="#Dégradé_sans_nom_14"/>
  </defs>
  <path class="cls-7" d="M83.27,71.49c7,3,16,5,22,0,10-8,22-13,34-11,10.84,1.55,22.87,4.89,34.25,3.54-12.86-22.74-37.24-38.09-65.23-38.09-30.74,0-57.14,18.52-68.68,45.01,4.56-1.94,9.11-4.1,13.66-6.46,10-5,19,4,30,7Z"/>
  <path class="cls-7" d="M84.27,162.61c-15.11,3.55-28.64-2.37-41.99-7.24,12.64,23.5,37.45,39.49,66.01,39.49,23.15,0,43.84-10.5,57.58-27-9.19-2.49-18.13-5.84-26.6-10.25-18-9-37,1-55,5Z"/>
  <path class="cls-8" d="M173.52,73.17c-11.38,1.35-23.41-1.99-34.25-3.54-12-2-24,3-34,11-6,5-15,3-22,0-11-3-20-12-30-7-4.55,2.36-9.1,4.51-13.66,6.46-3.99,9.16-6.22,19.26-6.22,29.89,0,12.81,3.22,24.87,8.89,35.41,13.35,4.87,26.88,10.79,41.99,7.24,18-4,37-14,55-5,8.47,4.4,17.4,7.75,26.6,10.25,10.81-12.98,17.33-29.68,17.33-47.9,0-13.38-3.53-25.93-9.68-36.81Z"/>
  <path class="cls-8" d="M193.59,177.64c-3.67,4.53-7.73,8.74-12.18,12.63-44.8,40.02-113.67,36.09-153.68-8.71C8.34,159.99-1.46,131.84.18,102.84c1.64-29,14.5-55.75,36.06-75.13,44.8-40.02,113.82-36.28,153.84,8.51,7.74,8.55,13.98,18.17,18.51,28.68,1.17,2.58,2.15,5,2.96,7.62,1.32,4-.56,8.35-4.57,9.67-4,1.32-8.35-.56-9.67-4.57-.78-2.26-1.72-4.32-2.49-6.58-3.82-8.97-9.39-17.39-15.92-24.63C144.42,8.06,84.97,4.58,46.46,39.25c-18.78,16.75-29.72,39.51-31.21,64.71-1.34,25,6.95,48.99,23.7,67.77,34.32,38.55,93.93,41.83,132.28,7.36,16.47-14.7,27.15-34.74,30.29-56.33.66-4.03,4.47-7.14,8.51-6.48,4.03.66,7.14,4.47,6.48,8.51-2.65,19.37-10.63,37.69-22.91,52.85Z"/>
  <path class="cls-1" d="M46.65,90.81c1.53,9.18,5.53,29.18-7.47,27.18-3-1-2-3-1-5-7,0-14-2-18,5-2-2-8,2-7-2,5-10,13-20,24.87-25.29l8.6.12ZM38.27,107.48c-1.08-4.49,1.92-7.49.92-11.49-4,4-8,7-10.93,11.53l10.01-.04Z"/>
  <path class="cls-6" d="M49.23,121.05c6.96-8.06,7.96-25.06,20.96-22.06-5,10-7,21-16.82,29.08-3.94,0-6.69-2.33-4.14-7.01Z"/>
  <path class="cls-5" d="M71.88,124.5c-.69-6.51,4.31-9.51,8.31-13.51,6-5,18-4,18,4s-12,6-18,8c3,6,9,0,13,2,1,1,1,2,1,3-5,6-14,4-19.61,1.94-1.72-1.14-2.7-2.92-2.7-5.43ZM88.82,116.71c1.64-.41,2.76-.9,2.76-2.15,0-.97-.88-1.71-2.32-1.7-2.8.01-5.84,2.44-7.21,4.94,2.28-.19,4.52-.5,6.76-1.08Z"/>
  <path class="cls-4" d="M117.1,122.92c-.91-.93-.91-1.93-1.91-2.93-4,4-11,12-14,5-1-3,8-6,11-9s-6-6-2-10c6-3,9,2,10,7,5-4,9-11,16-6-4,4-9,7-12,11-2,2,4,3,4,6,1,2-2,5-5.11,3.8-3.63.05-4.68-2.05-5.97-4.86Z"/>
  <path class="cls-3" d="M141.38,114.33c3.8-6.34,9.8-22.34,16.8-13.34,2,3-8,10-6,17,1,4-4,3-6.62,3.42-4.06-.01-6.87-2.38-4.18-7.08ZM152.45,95.01c.74-4.02,7.74-7.02,8.74-2.02,1,3-2,5-4.87,4.61-2.56.04-3.88-1.07-3.87-2.59Z"/>
  <path class="cls-2" d="M164.95,116.19c-3.77.8-.77-3.2-1.77-4.2,4-3,10,1,14-3-4-3-10-5-7-10,5-6,15-7,20-4,7,5-8,2-8,6,0,2,6,4,6,8-2,8-11,7-17.79,7.38-1.53,0-3.8-.09-5.45-.17Z"/>
</svg>